<?xml version="1.0" standalone="no"?>
<!DOCTYPE svg PUBLIC "-//W3C//DTD SVG 20010904//EN"
 "http://www.w3.org/TR/2001/REC-SVG-20010904/DTD/svg10.dtd">
<svg version="1.0" xmlns="http://www.w3.org/2000/svg"
 width="146.000000pt" height="101.000000pt" viewBox="0 0 146.000000 101.000000"
 preserveAspectRatio="xMidYMid meet">
<metadata>
Created by potrace 1.10, written by Peter Selinger 2001-2011
</metadata>
<g transform="translate(0.000000,101.000000) scale(0.100000,-0.100000)"
fill="#000000" stroke="none">
<path d="M143 833 c-4 -11 3 -23 20 -37 l27 -22 0 -267 0 -267 -25 -12 c-18
-8 -25 -18 -23 -32 3 -20 10 -21 136 -24 l132 -3 0 341 0 340 -130 0 c-113 0
-132 -2 -137 -17z"/>
<path d="M450 821 c0 -22 6 -30 24 -35 62 -15 62 -207 0 -222 -36 -9 -33 -56
4 -70 33 -13 42 -42 42 -134 0 -76 -16 -119 -46 -126 -19 -5 -24 -13 -24 -37
l0 -30 73 6 c128 9 197 53 217 137 21 89 -32 191 -109 206 -33 7 -33 24 1 24
31 0 94 69 102 112 22 120 -71 198 -234 198 -48 0 -50 -1 -50 -29z"/>
<path d="M976 835 c-83 -29 -132 -93 -143 -183 -13 -109 34 -170 188 -247 109
-55 139 -81 139 -121 0 -23 -42 -64 -66 -64 -9 0 -14 -12 -14 -31 l0 -32 45 6
c121 17 205 109 205 224 -1 106 -64 177 -210 238 -124 51 -148 89 -90 147 37
36 41 78 8 78 -13 -1 -41 -7 -62 -15z"/>
<path d="M1090 821 c0 -24 5 -31 29 -36 41 -9 88 -60 109 -117 18 -54 34 -67
57 -48 11 9 15 35 15 105 0 52 -3 100 -6 109 -7 19 -35 21 -51 5 -9 -9 -23 -9
-57 0 -25 6 -56 11 -70 11 -22 0 -26 -5 -26 -29z"/>
<path d="M836 398 c-3 -13 -6 -63 -6 -111 0 -117 18 -150 61 -111 15 14 22 14
70 0 73 -22 79 -21 79 14 0 24 -7 32 -36 46 -43 21 -77 63 -101 129 -21 57
-56 74 -67 33z"/>
</g>
</svg>
