<?xml version="1.0" standalone="no"?>
<!DOCTYPE svg PUBLIC "-//W3C//DTD SVG 20010904//EN"
 "http://www.w3.org/TR/2001/REC-SVG-20010904/DTD/svg10.dtd">
<svg version="1.0" xmlns="http://www.w3.org/2000/svg"
 width="40.000000pt" height="30.000000pt" viewBox="0 0 40.000000 30.000000"
 preserveAspectRatio="xMidYMid meet">
<metadata>
Created by potrace 1.13, written by Peter Selinger 2001-2015
</metadata>
<g transform="translate(0.000000,30.000000) scale(0.100000,-0.100000)"
fill="#000000" stroke="none">
<path d="M1895 1621 c-210 -50 -335 -212 -335 -432 0 -82 26 -170 69 -233 48
-69 135 -128 321 -218 91 -44 180 -91 198 -104 42 -33 62 -73 62 -127 0 -68
-43 -114 -120 -126 -34 -6 -35 -7 -38 -60 -2 -30 1 -58 6 -63 12 -12 136 6
202 28 147 50 263 178 290 323 30 161 -13 305 -122 407 -69 64 -137 104 -268
157 -207 83 -260 124 -260 201 0 53 30 100 84 130 36 20 39 25 39 67 0 26 -3
51 -6 56 -9 15 -41 13 -122 -6z"/>
<path d="M2093 1633 c-8 -3 -13 -25 -13 -58 l0 -53 53 -17 c114 -37 181 -113
232 -265 15 -46 29 -69 48 -80 24 -13 28 -13 51 9 l26 24 0 209 0 208 -26 17
c-25 16 -28 16 -70 -6 -28 -15 -53 -22 -71 -18 -15 3 -66 12 -113 21 -89 17
-97 17 -117 9z"/>
<path d="M192 1618 c-22 -22 -14 -66 16 -85 15 -9 37 -26 50 -37 l22 -19 0
-514 c0 -324 -4 -521 -10 -533 -6 -10 -28 -29 -50 -41 -51 -29 -58 -68 -17
-102 19 -17 38 -18 257 -13 129 4 241 6 248 6 9 0 12 142 12 675 l0 675 -258
0 c-187 0 -261 -3 -270 -12z"/>
<path d="M790 1578 l0 -53 47 -15 c77 -25 87 -48 91 -203 4 -157 -7 -200 -57
-234 -19 -13 -45 -23 -57 -23 -22 0 -24 -4 -24 -55 0 -51 2 -55 24 -55 12 0
38 -10 57 -23 53 -35 61 -74 57 -272 -3 -159 -4 -172 -26 -203 -17 -23 -36
-35 -68 -43 l-44 -11 0 -53 c0 -29 4 -55 10 -57 21 -7 257 11 305 23 78 19
157 63 201 111 56 60 79 131 79 238 0 76 -4 93 -33 152 -47 96 -127 155 -231
173 -41 7 -43 9 -26 21 10 8 35 17 54 20 80 15 158 79 191 157 75 174 -5 366
-174 419 -83 26 -171 38 -268 38 l-108 0 0 -52z"/>
<path d="M1586 765 c-23 -23 -28 -82 -24 -287 3 -178 4 -189 25 -210 25 -24
41 -20 96 24 27 22 28 22 90 5 105 -30 187 -46 202 -40 11 3 15 21 15 57 l0
52 -62 29 c-111 51 -192 151 -232 284 -9 30 -23 65 -31 78 -18 27 -56 31 -79
8z"/>
</g>
</svg>
