<?xml version="1.0" standalone="no"?>
<!DOCTYPE svg PUBLIC "-//W3C//DTD SVG 20010904//EN"
 "http://www.w3.org/TR/2001/REC-SVG-20010904/DTD/svg10.dtd">
<svg version="1.0" xmlns="http://www.w3.org/2000/svg"
 width="44.000000pt" height="32.000000pt" viewBox="0 0 44.000000 32.000000"
 preserveAspectRatio="xMidYMid meet">
<metadata>
Created by potrace 1.13, written by Peter Selinger 2001-2015
</metadata>
<g transform="translate(0.000000,32.000000) scale(0.100000,-0.100000)"
fill="#000000" stroke="none">
<path d="M145 250 c-3 -5 -1 -11 5 -15 14 -9 13 -48 -2 -63 -9 -9 -9 -15 0
-24 15 -15 15 -61 0 -76 -19 -19 -2 -25 29 -10 33 16 44 66 19 88 -20 16 -20
30 0 30 11 0 14 8 12 32 -2 25 -9 33 -30 39 -16 4 -30 3 -33 -1z"/>
<path d="M58 169 c2 -52 -1 -85 -8 -95 -10 -11 -9 -14 8 -14 11 0 27 -3 36 -6
14 -5 16 7 16 95 l0 101 -27 0 -28 0 3 -81z"/>
<path d="M273 238 c-34 -44 -26 -67 39 -113 41 -30 47 -39 38 -51 -10 -11 -10
-14 -1 -14 22 0 41 28 41 59 0 29 -28 58 -73 74 -24 9 -33 37 -16 48 11 7 11
9 -2 9 -9 0 -21 -6 -26 -12z"/>
<path d="M353 233 c9 -9 19 -14 23 -11 10 10 -6 28 -24 28 -15 0 -15 -1 1 -17z"/>
<path d="M257 104 c-16 -16 -7 -44 14 -44 16 0 19 3 12 13 -6 6 -12 18 -14 25
-3 7 -8 10 -12 6z"/>
</g>
</svg>
