<?xml version="1.0" standalone="no"?>
<!DOCTYPE svg PUBLIC "-//W3C//DTD SVG 20010904//EN"
 "http://www.w3.org/TR/2001/REC-SVG-20010904/DTD/svg10.dtd">
<svg version="1.0" xmlns="http://www.w3.org/2000/svg"
 width="88.000000pt" height="62.000000pt" viewBox="0 0 88.000000 62.000000"
 preserveAspectRatio="xMidYMid meet">
<metadata>
Created by potrace 1.13, written by Peter Selinger 2001-2015
</metadata>
<g transform="translate(0.000000,62.000000) scale(0.100000,-0.100000)"
fill="#000000" stroke="none">
<path d="M80 503 c0 -3 7 -14 16 -24 24 -26 21 -327 -3 -344 -30 -22 -4 -35
72 -35 l74 0 7 45 c3 25 4 71 1 103 -4 31 -6 103 -7 160 l0 102 -80 0 c-44 0
-80 -3 -80 -7z"/>
<path d="M260 506 c0 -1 11 -15 25 -30 34 -37 35 -97 1 -131 l-24 -24 24 -26
c35 -38 34 -116 -1 -151 -36 -36 -23 -48 43 -41 118 12 158 126 70 199 l-33
27 28 10 c33 13 50 52 41 98 -9 47 -52 73 -121 73 -29 0 -53 -2 -53 -4z"/>
<path d="M558 494 c-37 -19 -58 -63 -58 -118 0 -58 24 -86 114 -134 92 -49
101 -65 59 -101 -41 -34 -41 -41 -3 -41 74 0 120 51 120 131 0 71 -29 107
-112 142 -35 15 -69 37 -76 48 -12 18 -11 24 7 43 12 12 21 28 21 34 0 16 -39
14 -72 -4z"/>
<path d="M660 495 c0 -8 7 -15 14 -15 18 0 66 -61 66 -82 0 -9 7 -18 15 -22
12 -4 15 6 15 63 l0 69 -55 1 c-42 0 -55 -3 -55 -14z"/>
<path d="M500 176 c0 -70 10 -100 25 -76 4 7 23 8 51 4 54 -8 57 5 10 47 -19
16 -40 46 -46 64 -6 19 -18 35 -26 35 -11 0 -14 -17 -14 -74z"/>
</g>
</svg>
