<?xml version="1.0" standalone="no"?>
<!DOCTYPE svg PUBLIC "-//W3C//DTD SVG 20010904//EN"
 "http://www.w3.org/TR/2001/REC-SVG-20010904/DTD/svg10.dtd">
<svg version="1.0" xmlns="http://www.w3.org/2000/svg"
 width="292.000000pt" height="202.000000pt" viewBox="0 0 292.000000 202.000000"
 preserveAspectRatio="xMidYMid meet">
<metadata>
Created by potrace 1.13, written by Peter Selinger 2001-2015
</metadata>
<g transform="translate(0.000000,202.000000) scale(0.100000,-0.100000)"
fill="#000000" stroke="none">
<path d="M295 1675 c-40 -39 -38 -45 55 -115 l25 -18 3 -479 c2 -263 0 -502
-3 -531 -6 -47 -11 -56 -37 -70 -72 -39 -83 -68 -43 -107 l24 -25 240 0 c132
0 245 2 253 5 11 4 13 125 11 676 -2 369 -5 675 -9 680 -3 5 -112 9 -250 9
l-245 0 -24 -25z"/>
<path d="M897 1693 c-4 -3 -7 -30 -7 -59 0 -50 2 -54 28 -60 95 -20 107 -46
107 -236 0 -172 -8 -192 -88 -218 l-47 -15 0 -50 0 -50 47 -15 c83 -27 88 -41
88 -258 0 -232 -9 -255 -108 -277 -27 -5 -28 -7 -25 -63 l3 -57 40 -3 c48 -4
223 15 280 30 123 33 217 111 251 209 29 83 26 208 -7 279 -47 101 -117 159
-218 181 -28 6 -51 15 -51 19 0 5 19 14 43 21 164 44 251 166 234 329 -15 137
-95 226 -242 268 -85 24 -312 42 -328 25z"/>
<path d="M1997 1684 c-86 -20 -139 -48 -199 -103 -91 -83 -138 -198 -138 -336
0 -134 55 -241 163 -321 34 -26 131 -80 216 -121 188 -91 226 -115 251 -156
27 -43 26 -110 -1 -148 -24 -35 -52 -51 -99 -58 -35 -6 -35 -7 -38 -64 -4 -70
2 -73 95 -57 132 22 208 57 280 127 27 27 61 68 76 93 54 93 71 231 42 343
-42 162 -138 248 -389 352 -147 61 -200 90 -231 127 -23 27 -27 39 -23 79 6
58 35 100 87 124 40 18 41 19 41 70 0 71 -17 77 -133 49z"/>
<path d="M2193 1693 c-8 -3 -13 -25 -13 -58 l0 -53 53 -17 c114 -37 186 -120
231 -268 20 -63 51 -93 86 -82 11 3 24 14 30 24 5 10 10 108 12 218 3 186 2
202 -16 222 -24 27 -50 27 -87 0 -20 -14 -39 -19 -57 -16 -15 3 -65 12 -112
21 -88 17 -106 18 -127 9z"/>
<path d="M1686 825 c-23 -23 -28 -82 -24 -287 3 -178 4 -189 25 -210 25 -24
41 -20 96 24 27 22 27 22 90 4 106 -30 186 -46 202 -40 11 5 15 21 15 59 0 52
0 52 -42 71 -121 53 -197 140 -248 283 -16 45 -34 89 -41 97 -15 18 -54 18
-73 -1z"/>
</g>
</svg>
